<?xml version="1.0"?><svg version="1.2" baseProfile="tiny-ps" viewBox="0 0 300 300" xmlns="http://www.w3.org/2000/svg" xmlns:xlink="http://www.w3.org/1999/xlink"><title>Carpal</title><g><g fill="#fdfdfd" transform="matrix(.1 0 0 -.1 0 300)"><path d="M0 1500V0h3000v3000H0V1500z"/></g><g fill="#d8d8d8" transform="matrix(.1 0 0 -.1 0 300)"><path d="M0 1500V0h3000v3000H0V1500zm2368 573c-16-65-35-139-44-164l-14-45-158-84c-86-46-187-101-225-121l-67-38 6 27c4 15 14 57 24 94 10 36 16 69 12 72-3 3-241 6-530 6H848l6 25c4 14 16 50 27 79l20 54 56 37c81 54 238 133 308 155l60 19h536l537 1-30-117zm-1158-418c0-5-87-317-110-395-5-19-10-38-10-42v-8h1052l-4-12c-3-7-13-35-22-63-9-27-24-60-34-72-24-30-170-120-309-190l-115-58-386-3-385-3-36 24c-47 31-232 192-243 210l-7 14 28 89c106 324 155 472 162 492l9 22h205c113 0 205-2 205-5z"/></g><g fill="#aaa" transform="matrix(.1 0 0 -.1 0 300)"><path d="M0 1500V0h3000v3000H0V1500zm2400 688c0-2-18-73-40-158l-40-154-12-12c-7-7-83-49-168-94s-183-98-217-117l-63-35v11c0 6 9 44 20 83 11 40 20 78 20 85v13h-168c-93 0-331 3-529 7l-361 6 24 70c13 39 31 78 40 88 32 36 226 141 339 185l60 23 548 1c301 0 547-1 547-2zm-1190-540c0-7-27-106-59-220s-56-210-53-213 239-5 525-5h519l-7-27c-3-16-17-51-30-79l-23-52-58-39c-69-46-261-153-319-177-22-10-60-22-85-27l-45-11-354 8-354 7-116 97c-64 54-125 107-135 119l-20 22 28 87c15 48 60 185 99 305l71 217h416v-12z"/></g><g fill="#767676" transform="matrix(.1 0 0 -.1 0 300)"><path d="M0 1500V0h3000v3000H0V1500zm2400 684c0-22-74-293-85-310l-13-20-139-74c-76-41-173-93-217-117-43-24-82-43-86-43s4 41 17 91c14 50 23 92 21 94s-238 5-525 7-524 6-527 9c-9 8 34 131 53 153 40 46 229 153 339 192l67 24h1095v-6zm-1185-536c-17-51-115-411-115-423v-15h1048l-25-67-24-68-25-26c-32-33-200-134-329-196l-100-48-360-3-360-3-36 10-37 11-123 106-124 106-3 19-3 19 96 295 96 295h428l-4-12z"/></g><g fill="#4e4e4e" transform="matrix(.1 0 0 -.1 0 300)"><path d="M0 1500V0h3000v3000H0V1500zm2400 683c0-24-77-313-85-322-10-9-460-249-463-246-1 1 9 44 23 96s25 95 25 97c0 1-239 2-531 2H838l5 28c3 15 15 54 27 86l22 58 69 44c89 58 260 140 329 158l55 15h528l527 1v-17zm-1184-525c2-2-24-100-57-217-33-118-57-216-54-220 4-3 240-7 525-10l518-3-18-52c-10-28-23-64-31-79l-13-28-65-43c-68-45-227-134-316-177l-50-24-380-3-380-3-32 18c-18 10-84 63-148 117l-115 99v25c0 30 178 581 194 601l11 14 203-6c112-3 206-7 208-9z"/></g><g fill="#020202" transform="matrix(.1 0 0 -.1 0 300)"><path d="M0 1500V0h3000v3000H0V1500zm2406 683c-3-10-22-83-42-163-21-80-42-151-47-157-5-7-75-47-156-90-80-42-182-96-225-120s-81-42-83-39c-2 2 5 40 16 84 12 44 21 87 21 96v16h-523c-288 0-526 3-530 6-8 8 42 145 61 167 38 43 242 153 354 192l73 24 543 1h543l-5-17zm-1186-525c0-10-92-344-116-420l-5-18h525c289 0 526-2 526-5s-10-36-21-73l-22-67-38-36c-41-38-205-134-334-196l-80-38-382-3-383-3-27 15c-29 14-238 190-261 219l-14 16 77 243c86 269 113 347 128 366l9 12h418v-12z"/></g></g></svg>